<svg opacity="1" width="1001" height="1001" viewBox="0 0 1001 1001" fill="none" xmlns="http://www.w3.org/2000/svg">
<rect x="0.5" y="0.5" width="200" height="200" stroke="white"/>
<path fill-rule="evenodd" clip-rule="evenodd" d="M120.5 0.5H80.5V52.2157L43.9315 15.6472L15.6472 43.9314L52.2158 80.5H0.5V120.5H52.2157L15.6472 157.068L43.9315 185.353L80.5 148.784V200.5H120.5V148.784L157.069 185.353L185.353 157.069L148.784 120.5H200.5V80.5H148.784L185.353 43.9314L157.069 15.6471L120.5 52.2157V0.5Z" fill="white"/>
<rect x="200.5" y="0.5" width="200" height="200" stroke="white"/>
<path d="M305.5 200.377C358.406 197.772 400.5 154.052 400.5 100.5C400.5 84.0669 396.536 68.5597 389.513 54.8822C361.349 71.1422 347.268 79.2722 336.618 90.2293C323.901 103.315 314.638 119.358 309.665 136.915C305.5 151.616 305.5 167.87 305.5 200.377Z" fill="white"/>
<path d="M295.5 200.377C242.595 197.772 200.5 154.052 200.5 100.5C200.5 84.0669 204.464 68.5596 211.488 54.8821C239.651 71.1422 253.733 79.2723 264.382 90.2293C277.1 103.315 286.362 119.358 291.336 136.915C295.5 151.616 295.5 167.87 295.5 200.377Z" fill="white"/>
<path d="M216.495 46.2264C244.656 62.485 258.736 70.6142 273.555 74.3582C291.24 78.8266 309.76 78.8266 327.446 74.3582C342.264 70.6142 356.344 62.485 384.505 46.2265C366.689 18.7089 335.721 0.5 300.5 0.5C265.279 0.5 234.311 18.7089 216.495 46.2264Z" fill="white"/>
<rect x="400.5" y="0.5" width="200" height="200" stroke="white"/>
<path d="M500.5 200.5L486.088 128.441L445.5 155.5L472.559 114.912L400.5 100.5L472.559 86.0883L445.5 45.4997L486.088 72.5588L500.5 0.5L514.912 72.5585L555.5 45.4997L528.441 86.0882L600.5 100.5L528.441 114.912L555.5 155.5L514.912 128.441L500.5 200.5Z" fill="white"/>
<g clip-path="url(#clip0_107_2348)">
<path d="M750.499 50.5C750.499 78.1142 728.113 100.5 700.499 100.5C672.885 100.5 650.499 78.1142 650.499 50.5C650.499 22.8858 672.885 0.5 700.499 0.5C728.113 0.5 750.499 22.8858 750.499 50.5Z" fill="white"/>
<path d="M750.499 150.5C750.499 178.115 728.113 200.5 700.499 200.5C672.885 200.5 650.499 178.115 650.499 150.5C650.499 122.886 672.885 100.5 700.499 100.5C728.113 100.5 750.499 122.886 750.499 150.5Z" fill="white"/>
<path d="M600.5 200.501C613.761 200.501 626.479 195.233 635.855 185.856C645.232 176.48 650.5 163.762 650.5 150.501C650.5 137.24 645.232 124.522 635.855 115.146C626.479 105.769 613.761 100.501 600.5 100.501L600.5 200.501Z" fill="white"/>
<path d="M800.5 200.501C787.239 200.501 774.521 195.233 765.145 185.856C755.768 176.48 750.5 163.762 750.5 150.501C750.5 137.24 755.768 124.522 765.145 115.146C774.521 105.769 787.239 100.501 800.5 100.501V200.501Z" fill="white"/>
<path d="M600.5 100.501C613.761 100.501 626.479 95.2322 635.855 85.8553C645.232 76.4785 650.499 63.7608 650.499 50.5C650.499 37.2392 645.232 24.5215 635.855 15.1447C626.479 5.76785 613.761 0.500003 600.5 0.5V100.501Z" fill="white"/>
<path d="M800.5 100.501C787.239 100.501 774.521 95.2322 765.145 85.8553C755.768 76.4785 750.499 63.7608 750.499 50.5C750.499 37.2392 755.768 24.5215 765.145 15.1447C774.521 5.76785 787.239 0.500003 800.5 0.5V100.501Z" fill="white"/>
</g>
<rect x="600.5" y="0.5" width="200" height="200" stroke="white"/>
<rect x="800.5" y="0.5" width="200" height="200" stroke="white"/>
<path d="M960.103 4.61855C980.527 10.1619 986.936 26.7921 985.24 41.7591C983.559 56.5911 967.724 69.8048 944.505 68.9483C950.828 69.4417 970.724 76.7708 974.767 94.4207C978.957 112.714 969.586 124.011 958.009 129.898C939.843 139.135 919.782 139.109 902.5 138C913.121 143.911 928.331 154.991 930.253 172.027C932.176 189.064 917.685 205.287 888.359 199.19C859.033 193.092 803.367 168 818.185 124.909C824.127 107.63 843.591 101.114 854.843 98.8554C859.713 97.8776 874.219 95.5294 894.643 95.5294C870.156 93.173 832.117 81.1166 830.23 53.9543C826.456 -0.370216 923.561 -5.29979 960.103 4.61855Z" fill="white"/>
<g clip-path="url(#clip1_107_2348)">
<path d="M150.499 250.5C150.499 278.114 128.113 300.5 100.499 300.5C72.8848 300.5 50.499 278.114 50.499 250.5C50.499 222.886 72.8848 200.5 100.499 200.5C128.113 200.5 150.499 222.886 150.499 250.5Z" fill="white"/>
<path d="M150.499 350.5C150.499 378.115 128.113 400.5 100.499 400.5C72.8848 400.5 50.499 378.115 50.499 350.5C50.499 322.886 72.8848 300.5 100.499 300.5C128.113 300.5 150.499 322.886 150.499 350.5Z" fill="white"/>
<path d="M0.5 400.501C13.7608 400.501 26.4785 395.233 35.8553 385.856C45.2322 376.48 50.5 363.762 50.5 350.501C50.5 337.24 45.2322 324.522 35.8553 315.146C26.4785 305.769 13.7608 300.501 0.500012 300.501L0.5 400.501Z" fill="white"/>
<path d="M200.5 400.501C187.239 400.501 174.521 395.233 165.145 385.856C155.768 376.48 150.5 363.762 150.5 350.501C150.5 337.24 155.768 324.522 165.145 315.146C174.521 305.769 187.239 300.501 200.5 300.501V400.501Z" fill="white"/>
<path d="M0.500012 300.501C13.7608 300.501 26.4785 295.232 35.8553 285.855C45.2322 276.479 50.499 263.761 50.499 250.5C50.499 237.239 45.2322 224.521 35.8553 215.145C26.4785 205.768 13.7608 200.5 0.500012 200.5V300.501Z" fill="white"/>
<path d="M200.5 300.501C187.239 300.501 174.521 295.232 165.145 285.855C155.768 276.479 150.499 263.761 150.499 250.5C150.499 237.239 155.768 224.521 165.145 215.145C174.521 205.768 187.239 200.5 200.5 200.5V300.501Z" fill="white"/>
</g>
<rect x="0.5" y="200.5" width="200" height="200" stroke="white"/>
<rect x="200.5" y="200.5" width="200" height="200" stroke="white"/>
<path d="M360.103 204.619C380.527 210.162 386.936 226.792 385.24 241.759C383.559 256.591 367.724 269.805 344.505 268.948C350.828 269.442 370.724 276.771 374.767 294.421C378.957 312.714 369.586 324.011 358.009 329.898C339.843 339.135 319.782 339.109 302.5 338C313.121 343.911 328.331 354.991 330.253 372.027C332.176 389.064 317.685 405.287 288.359 399.19C259.033 393.092 203.367 368 218.185 324.909C224.127 307.63 243.591 301.114 254.843 298.855C259.713 297.878 274.219 295.529 294.643 295.529C270.156 293.173 232.117 281.117 230.23 253.954C226.456 199.63 323.561 194.7 360.103 204.619Z" fill="white"/>
<rect x="400.5" y="200.5" width="200" height="200" stroke="white"/>
<path fill-rule="evenodd" clip-rule="evenodd" d="M520.5 200.5H480.5V252.216L443.931 215.647L415.647 243.931L452.216 280.5H400.5V320.5H452.216L415.647 357.068L443.931 385.353L480.5 348.784V400.5H520.5V348.784L557.069 385.353L585.353 357.069L548.784 320.5H600.5V280.5H548.784L585.353 243.931L557.069 215.647L520.5 252.216V200.5Z" fill="white"/>
<rect x="600.5" y="200.5" width="200" height="200" stroke="white"/>
<path d="M705.5 400.377C758.406 397.772 800.5 354.052 800.5 300.5C800.5 284.067 796.536 268.56 789.513 254.882C761.349 271.142 747.268 279.272 736.618 290.229C723.901 303.315 714.638 319.358 709.665 336.915C705.5 351.616 705.5 367.87 705.5 400.377Z" fill="white"/>
<path d="M695.5 400.377C642.595 397.772 600.5 354.052 600.5 300.5C600.5 284.067 604.464 268.56 611.488 254.882C639.651 271.142 653.733 279.272 664.382 290.229C677.1 303.315 686.362 319.358 691.336 336.915C695.5 351.616 695.5 367.87 695.5 400.377Z" fill="white"/>
<path d="M616.495 246.226C644.656 262.485 658.736 270.614 673.555 274.358C691.24 278.827 709.76 278.827 727.446 274.358C742.264 270.614 756.344 262.485 784.505 246.227C766.689 218.709 735.721 200.5 700.5 200.5C665.279 200.5 634.311 218.709 616.495 246.226Z" fill="white"/>
<rect x="800.5" y="200.5" width="200" height="200" stroke="white"/>
<path d="M900.5 400.5L886.088 328.441L845.5 355.5L872.559 314.912L800.5 300.5L872.559 286.088L845.5 245.5L886.088 272.559L900.5 200.5L914.912 272.559L955.5 245.5L928.441 286.088L1000.5 300.5L928.441 314.912L955.5 355.5L914.912 328.441L900.5 400.5Z" fill="white"/>
<rect x="0.5" y="400.5" width="200" height="200" stroke="white"/>
<path d="M105.5 600.377C158.406 597.772 200.5 554.052 200.5 500.5C200.5 484.067 196.536 468.56 189.513 454.882C161.349 471.142 147.268 479.272 136.618 490.229C123.901 503.315 114.638 519.358 109.665 536.915C105.5 551.616 105.5 567.87 105.5 600.377Z" fill="white"/>
<path d="M95.5001 600.377C42.5945 597.772 0.5 554.052 0.5 500.5C0.5 484.067 4.46382 468.56 11.4875 454.882C39.6509 471.142 53.7326 479.272 64.3818 490.229C77.0996 503.315 86.3624 519.358 91.3357 536.915C95.5001 551.616 95.5001 567.87 95.5001 600.377Z" fill="white"/>
<path d="M16.4955 446.226C44.6561 462.485 58.7364 470.614 73.5547 474.358C91.2404 478.827 109.76 478.827 127.446 474.358C142.264 470.614 156.344 462.485 184.505 446.227C166.689 418.709 135.721 400.5 100.5 400.5C65.2788 400.5 34.3106 418.709 16.4955 446.226Z" fill="white"/>
<rect x="200.5" y="400.5" width="200" height="200" stroke="white"/>
<path fill-rule="evenodd" clip-rule="evenodd" d="M320.5 400.5H280.5V452.216L243.931 415.647L215.647 443.931L252.216 480.5H200.5V520.5H252.216L215.647 557.068L243.931 585.353L280.5 548.784V600.5H320.5V548.784L357.069 585.353L385.353 557.069L348.784 520.5H400.5V480.5H348.784L385.353 443.931L357.069 415.647L320.5 452.216V400.5Z" fill="white"/>
<rect x="400.5" y="400.5" width="200" height="200" stroke="white"/>
<path d="M500.5 600.5L486.088 528.441L445.5 555.5L472.559 514.912L400.5 500.5L472.559 486.088L445.5 445.5L486.088 472.559L500.5 400.5L514.912 472.559L555.5 445.5L528.441 486.088L600.5 500.5L528.441 514.912L555.5 555.5L514.912 528.441L500.5 600.5Z" fill="white"/>
<g clip-path="url(#clip2_107_2348)">
<path d="M750.499 450.5C750.499 478.114 728.113 500.5 700.499 500.5C672.885 500.5 650.499 478.114 650.499 450.5C650.499 422.886 672.885 400.5 700.499 400.5C728.113 400.5 750.499 422.886 750.499 450.5Z" fill="white"/>
<path d="M750.499 550.5C750.499 578.115 728.113 600.5 700.499 600.5C672.885 600.5 650.499 578.115 650.499 550.5C650.499 522.886 672.885 500.5 700.499 500.5C728.113 500.5 750.499 522.886 750.499 550.5Z" fill="white"/>
<path d="M600.5 600.501C613.761 600.501 626.479 595.233 635.855 585.856C645.232 576.48 650.5 563.762 650.5 550.501C650.5 537.24 645.232 524.522 635.855 515.146C626.479 505.769 613.761 500.501 600.5 500.501L600.5 600.501Z" fill="white"/>
<path d="M800.5 600.501C787.239 600.501 774.521 595.233 765.145 585.856C755.768 576.48 750.5 563.762 750.5 550.501C750.5 537.24 755.768 524.522 765.145 515.146C774.521 505.769 787.239 500.501 800.5 500.501V600.501Z" fill="white"/>
<path d="M600.5 500.501C613.761 500.501 626.479 495.232 635.855 485.855C645.232 476.479 650.499 463.761 650.499 450.5C650.499 437.239 645.232 424.521 635.855 415.145C626.479 405.768 613.761 400.5 600.5 400.5V500.501Z" fill="white"/>
<path d="M800.5 500.501C787.239 500.501 774.521 495.232 765.145 485.855C755.768 476.479 750.499 463.761 750.499 450.5C750.499 437.239 755.768 424.521 765.145 415.145C774.521 405.768 787.239 400.5 800.5 400.5V500.501Z" fill="white"/>
</g>
<rect x="600.5" y="400.5" width="200" height="200" stroke="white"/>
<rect x="800.5" y="400.5" width="200" height="200" stroke="white"/>
<path d="M960.103 404.619C980.527 410.162 986.936 426.792 985.24 441.759C983.559 456.591 967.724 469.805 944.505 468.948C950.828 469.442 970.724 476.771 974.767 494.421C978.957 512.714 969.586 524.011 958.009 529.898C939.843 539.135 919.782 539.109 902.5 538C913.121 543.911 928.331 554.991 930.253 572.027C932.176 589.064 917.685 605.287 888.359 599.19C859.033 593.092 803.367 568 818.185 524.909C824.127 507.63 843.591 501.114 854.843 498.855C859.713 497.878 874.219 495.529 894.643 495.529C870.156 493.173 832.117 481.117 830.23 453.954C826.456 399.63 923.561 394.7 960.103 404.619Z" fill="white"/>
<rect x="0.5" y="600.5" width="200" height="200" stroke="white"/>
<path fill-rule="evenodd" clip-rule="evenodd" d="M120.5 600.5H80.5V652.216L43.9315 615.647L15.6472 643.931L52.2158 680.5H0.5V720.5H52.2157L15.6472 757.068L43.9315 785.353L80.5 748.784V800.5H120.5V748.784L157.069 785.353L185.353 757.069L148.784 720.5H200.5V680.5H148.784L185.353 643.931L157.069 615.647L120.5 652.216V600.5Z" fill="white"/>
<g clip-path="url(#clip3_107_2348)">
<path d="M350.499 650.5C350.499 678.114 328.113 700.5 300.499 700.5C272.885 700.5 250.499 678.114 250.499 650.5C250.499 622.886 272.885 600.5 300.499 600.5C328.113 600.5 350.499 622.886 350.499 650.5Z" fill="white"/>
<path d="M350.499 750.5C350.499 778.115 328.113 800.5 300.499 800.5C272.885 800.5 250.499 778.115 250.499 750.5C250.499 722.886 272.885 700.5 300.499 700.5C328.113 700.5 350.499 722.886 350.499 750.5Z" fill="white"/>
<path d="M200.5 800.501C213.761 800.501 226.479 795.233 235.855 785.856C245.232 776.48 250.5 763.762 250.5 750.501C250.5 737.24 245.232 724.522 235.855 715.146C226.479 705.769 213.761 700.501 200.5 700.501L200.5 800.501Z" fill="white"/>
<path d="M400.5 800.501C387.239 800.501 374.521 795.233 365.145 785.856C355.768 776.48 350.5 763.762 350.5 750.501C350.5 737.24 355.768 724.522 365.145 715.146C374.521 705.769 387.239 700.501 400.5 700.501V800.501Z" fill="white"/>
<path d="M200.5 700.501C213.761 700.501 226.479 695.232 235.855 685.855C245.232 676.479 250.499 663.761 250.499 650.5C250.499 637.239 245.232 624.521 235.855 615.145C226.479 605.768 213.761 600.5 200.5 600.5V700.501Z" fill="white"/>
<path d="M400.5 700.501C387.239 700.501 374.521 695.232 365.145 685.855C355.768 676.479 350.499 663.761 350.499 650.5C350.499 637.239 355.768 624.521 365.145 615.145C374.521 605.768 387.239 600.5 400.5 600.5V700.501Z" fill="white"/>
</g>
<rect x="200.5" y="600.5" width="200" height="200" stroke="white"/>
<rect x="400.5" y="600.5" width="200" height="200" stroke="white"/>
<path d="M560.103 604.619C580.527 610.162 586.936 626.792 585.24 641.759C583.559 656.591 567.724 669.805 544.505 668.948C550.828 669.442 570.724 676.771 574.767 694.421C578.957 712.714 569.586 724.011 558.009 729.898C539.843 739.135 519.782 739.109 502.5 738C513.121 743.911 528.331 754.991 530.253 772.027C532.176 789.064 517.685 805.287 488.359 799.19C459.033 793.092 403.367 768 418.185 724.909C424.127 707.63 443.591 701.114 454.843 698.855C459.713 697.878 474.219 695.529 494.643 695.529C470.156 693.173 432.117 681.117 430.23 653.954C426.456 599.63 523.561 594.7 560.103 604.619Z" fill="white"/>
<rect x="600.5" y="600.5" width="200" height="200" stroke="white"/>
<path d="M700.5 800.5L686.088 728.441L645.5 755.5L672.559 714.912L600.5 700.5L672.559 686.088L645.5 645.5L686.088 672.559L700.5 600.5L714.912 672.559L755.5 645.5L728.441 686.088L800.5 700.5L728.441 714.912L755.5 755.5L714.912 728.441L700.5 800.5Z" fill="white"/>
<rect x="800.5" y="600.5" width="200" height="200" stroke="white"/>
<path d="M905.5 800.377C958.406 797.772 1000.5 754.052 1000.5 700.5C1000.5 684.067 996.536 668.56 989.513 654.882C961.349 671.142 947.268 679.272 936.618 690.229C923.901 703.315 914.638 719.358 909.665 736.915C905.5 751.616 905.5 767.87 905.5 800.377Z" fill="white"/>
<path d="M895.5 800.377C842.595 797.772 800.5 754.052 800.5 700.5C800.5 684.067 804.464 668.56 811.488 654.882C839.651 671.142 853.733 679.272 864.382 690.229C877.1 703.315 886.362 719.358 891.336 736.915C895.5 751.616 895.5 767.87 895.5 800.377Z" fill="white"/>
<path d="M816.495 646.226C844.656 662.485 858.736 670.614 873.555 674.358C891.24 678.827 909.76 678.827 927.446 674.358C942.264 670.614 956.344 662.485 984.505 646.227C966.689 618.709 935.721 600.5 900.5 600.5C865.279 600.5 834.311 618.709 816.495 646.226Z" fill="white"/>
<rect x="0.5" y="800.5" width="200" height="200" stroke="white"/>
<path d="M160.103 804.619C180.527 810.162 186.936 826.792 185.24 841.759C183.559 856.591 167.724 869.805 144.505 868.948C150.828 869.442 170.724 876.771 174.767 894.421C178.957 912.714 169.586 924.011 158.009 929.898C139.843 939.135 119.782 939.109 102.5 938C113.121 943.911 128.331 954.991 130.253 972.027C132.176 989.064 117.685 1005.29 88.3589 999.19C59.0325 993.092 3.36721 968 18.1849 924.909C24.1267 907.63 43.5914 901.114 54.8427 898.855C59.7134 897.878 74.2191 895.529 94.6426 895.529C70.1561 893.173 32.1166 881.117 30.2298 853.954C26.4562 799.63 123.561 794.7 160.103 804.619Z" fill="white"/>
<rect x="200.5" y="800.5" width="200" height="200" stroke="white"/>
<path d="M300.5 1000.5L286.088 928.441L245.5 955.5L272.559 914.912L200.5 900.5L272.559 886.088L245.5 845.5L286.088 872.559L300.5 800.5L314.912 872.559L355.5 845.5L328.441 886.088L400.5 900.5L328.441 914.912L355.5 955.5L314.912 928.441L300.5 1000.5Z" fill="white"/>
<rect x="400.5" y="800.5" width="200" height="200" stroke="white"/>
<path d="M505.5 1000.38C558.406 997.772 600.5 954.052 600.5 900.5C600.5 884.067 596.536 868.56 589.513 854.882C561.349 871.142 547.268 879.272 536.618 890.229C523.901 903.315 514.638 919.358 509.665 936.915C505.5 951.616 505.5 967.87 505.5 1000.38Z" fill="white"/>
<path d="M495.5 1000.38C442.595 997.772 400.5 954.052 400.5 900.5C400.5 884.067 404.464 868.56 411.488 854.882C439.651 871.142 453.733 879.272 464.382 890.229C477.1 903.315 486.362 919.358 491.336 936.915C495.5 951.616 495.5 967.87 495.5 1000.38Z" fill="white"/>
<path d="M416.495 846.226C444.656 862.485 458.736 870.614 473.555 874.358C491.24 878.827 509.76 878.827 527.446 874.358C542.264 870.614 556.344 862.485 584.505 846.227C566.689 818.709 535.721 800.5 500.5 800.5C465.279 800.5 434.311 818.709 416.495 846.226Z" fill="white"/>
<g clip-path="url(#clip4_107_2348)">
<path d="M750.499 850.5C750.499 878.114 728.113 900.5 700.499 900.5C672.885 900.5 650.499 878.114 650.499 850.5C650.499 822.886 672.885 800.5 700.499 800.5C728.113 800.5 750.499 822.886 750.499 850.5Z" fill="white"/>
<path d="M750.499 950.5C750.499 978.115 728.113 1000.5 700.499 1000.5C672.885 1000.5 650.499 978.115 650.499 950.5C650.499 922.886 672.885 900.5 700.499 900.5C728.113 900.5 750.499 922.886 750.499 950.5Z" fill="white"/>
<path d="M600.5 1000.5C613.761 1000.5 626.479 995.233 635.855 985.856C645.232 976.48 650.5 963.762 650.5 950.501C650.5 937.24 645.232 924.522 635.855 915.146C626.479 905.769 613.761 900.501 600.5 900.501L600.5 1000.5Z" fill="white"/>
<path d="M800.5 1000.5C787.239 1000.5 774.521 995.233 765.145 985.856C755.768 976.48 750.5 963.762 750.5 950.501C750.5 937.24 755.768 924.522 765.145 915.146C774.521 905.769 787.239 900.501 800.5 900.501V1000.5Z" fill="white"/>
<path d="M600.5 900.501C613.761 900.501 626.479 895.232 635.855 885.855C645.232 876.479 650.499 863.761 650.499 850.5C650.499 837.239 645.232 824.521 635.855 815.145C626.479 805.768 613.761 800.5 600.5 800.5V900.501Z" fill="white"/>
<path d="M800.5 900.501C787.239 900.501 774.521 895.232 765.145 885.855C755.768 876.479 750.499 863.761 750.499 850.5C750.499 837.239 755.768 824.521 765.145 815.145C774.521 805.768 787.239 800.5 800.5 800.5V900.501Z" fill="white"/>
</g>
<rect x="600.5" y="800.5" width="200" height="200" stroke="white"/>
<rect x="800.5" y="800.5" width="200" height="200" stroke="white"/>
<path fill-rule="evenodd" clip-rule="evenodd" d="M920.5 800.5H880.5V852.216L843.931 815.647L815.647 843.931L852.216 880.5H800.5V920.5H852.216L815.647 957.068L843.931 985.353L880.5 948.784V1000.5H920.5V948.784L957.069 985.353L985.353 957.069L948.784 920.5H1000.5V880.5H948.784L985.353 843.931L957.069 815.647L920.5 852.216V800.5Z" fill="white"/>
<defs>
<clipPath id="clip0_107_2348">
<rect x="600.5" y="0.5" width="200" height="200" fill="white"/>
</clipPath>
<clipPath id="clip1_107_2348">
<rect x="0.5" y="200.5" width="200" height="200" fill="white"/>
</clipPath>
<clipPath id="clip2_107_2348">
<rect x="600.5" y="400.5" width="200" height="200" fill="white"/>
</clipPath>
<clipPath id="clip3_107_2348">
<rect x="200.5" y="600.5" width="200" height="200" fill="white"/>
</clipPath>
<clipPath id="clip4_107_2348">
<rect x="600.5" y="800.5" width="200" height="200" fill="white"/>
</clipPath>
</defs>
</svg>
