<svg width="1001" height="1001" viewBox="0 0 1001 1001" fill="none" xmlns="http://www.w3.org/2000/svg">
<rect width="1000" height="1000" transform="translate(0.5 0.5)" fill="none"/>
<rect x="0.5" y="0.5" width="200" height="200" stroke="rgba(255,255,255,0.08)"/>
<path fill-rule="evenodd" clip-rule="evenodd" d="M120.5 0.5H80.5V52.2157L43.9315 15.6472L15.6472 43.9314L52.2158 80.5H0.5V120.5H52.2157L15.6472 157.068L43.9315 185.353L80.5 148.784V200.5H120.5V148.784L157.069 185.353L185.353 157.069L148.784 120.5H200.5V80.5H148.784L185.353 43.9314L157.069 15.6471L120.5 52.2157V0.5Z" fill="rgba(255,255,255,0.05)"/>
<rect x="200.5" y="0.5" width="200" height="200" stroke="rgba(255,255,255,0.08)"/>
<path d="M305.5 200.377C358.406 197.772 400.5 154.052 400.5 100.5C400.5 84.0669 396.536 68.5597 389.513 54.8822C361.349 71.1422 347.268 79.2722 336.618 90.2293C323.901 103.315 314.638 119.358 309.665 136.915C305.5 151.616 305.5 167.87 305.5 200.377Z" fill="rgba(255,255,255,0.05)"/>
<path d="M295.5 200.377C242.595 197.772 200.5 154.052 200.5 100.5C200.5 84.0669 204.464 68.5596 211.488 54.8821C239.651 71.1422 253.733 79.2723 264.382 90.2293C277.1 103.315 286.362 119.358 291.336 136.915C295.5 151.616 295.5 167.87 295.5 200.377Z" fill="rgba(255,255,255,0.05)"/>
<path d="M216.495 46.2264C244.656 62.485 258.736 70.6142 273.555 74.3582C291.24 78.8266 309.76 78.8266 327.446 74.3582C342.264 70.6142 356.344 62.485 384.505 46.2265C366.689 18.7089 335.721 0.5 300.5 0.5C265.279 0.5 234.311 18.7089 216.495 46.2264Z" fill="rgba(255,255,255,0.05)"/>
<rect x="400.5" y="0.5" width="200" height="200" stroke="rgba(255,255,255,0.08)"/>
<path d="M500.5 200.5L486.088 128.441L445.5 155.5L472.559 114.912L400.5 100.5L472.559 86.0883L445.5 45.4997L486.088 72.5588L500.5 0.5L514.912 72.5585L555.5 45.4997L528.441 86.0882L600.5 100.5L528.441 114.912L555.5 155.5L514.912 128.441L500.5 200.5Z" fill="rgba(255,255,255,0.05)"/>
<rect x="600.5" y="0.5" width="200" height="200" stroke="rgba(255,255,255,0.08)"/>
<rect x="800.5" y="0.5" width="200" height="200" stroke="rgba(255,255,255,0.08)"/>
<path d="M960.103 4.61855C980.527 10.1619 986.936 26.7921 985.24 41.7591C983.559 56.5911 967.724 69.8048 944.505 68.9483C950.828 69.4417 970.724 76.7708 974.767 94.4207C978.957 112.714 969.586 124.011 958.009 129.898C939.843 139.135 919.782 139.109 902.5 138C913.121 143.911 928.331 154.991 930.253 172.027C932.176 189.064 917.685 205.287 888.359 199.19C859.033 193.092 803.367 168 818.185 124.909C824.127 107.63 843.591 101.114 854.843 98.8554C859.713 97.8776 874.219 95.5294 894.643 95.5294C870.156 93.173 832.117 81.1166 830.23 53.9543C826.456 -0.370216 923.561 -5.29979 960.103 4.61855Z" fill="rgba(255,255,255,0.05)"/>
<rect x="0.5" y="200.5" width="200" height="200" stroke="rgba(255,255,255,0.08)"/>
<rect x="200.5" y="200.5" width="200" height="200" stroke="rgba(255,255,255,0.08)"/>
<path d="M360.103 204.619C380.527 210.162 386.936 226.792 385.24 241.759C383.559 256.591 367.724 269.805 344.505 268.948C350.828 269.442 370.724 276.771 374.767 294.421C378.957 312.714 369.586 324.011 358.009 329.898C339.843 339.135 319.782 339.109 302.5 338C313.121 343.911 328.331 354.991 330.253 372.027C332.176 389.064 317.685 405.287 288.359 399.19C259.033 393.092 203.367 368 218.185 324.909C224.127 307.63 243.591 301.114 254.843 298.855C259.713 297.878 274.219 295.529 294.643 295.529C270.156 293.173 232.117 281.117 230.23 253.954C226.456 199.63 323.561 194.7 360.103 204.619Z" fill="rgba(255,255,255,0.05)"/>
<rect x="400.5" y="200.5" width="200" height="200" stroke="rgba(255,255,255,0.08)"/>
<path fill-rule="evenodd" clip-rule="evenodd" d="M520.5 200.5H480.5V252.216L443.931 215.647L415.647 243.931L452.216 280.5H400.5V320.5H452.216L415.647 357.068L443.931 385.353L480.5 348.784V400.5H520.5V348.784L557.069 385.353L585.353 357.069L548.784 320.5H600.5V280.5H548.784L585.353 243.931L557.069 215.647L520.5 252.216V200.5Z" fill="rgba(255,255,255,0.05)"/>
<rect x="600.5" y="200.5" width="200" height="200" stroke="rgba(255,255,255,0.08)"/>
<rect x="800.5" y="200.5" width="200" height="200" stroke="rgba(255,255,255,0.08)"/>
<path d="M900.5 400.5L886.088 328.441L845.5 355.5L872.559 314.912L800.5 300.5L872.559 286.088L845.5 245.5L886.088 272.559L900.5 200.5L914.912 272.559L955.5 245.5L928.441 286.088L1000.5 300.5L928.441 314.912L955.5 355.5L914.912 328.441L900.5 400.5Z" fill="rgba(255,255,255,0.05)"/>
</svg>
