<svg width="327" height="327" viewBox="0 0 327 327" fill="none" xmlns="http://www.w3.org/2000/svg">
<g clip-path="url(#clip0_749_1806)">
<path d="M326.25 0H0V326.25H326.25V0Z" fill="white"/>
<path d="M31.5713 68.4056V101.517C31.5713 103.573 33.2382 105.24 35.2945 105.24H68.4059H101.517C103.574 105.24 105.241 103.573 105.241 101.517V68.4056V35.2942C105.241 33.2379 103.574 31.5709 101.517 31.5709H68.4059H35.2945C33.2383 31.5709 31.5713 33.2379 31.5713 35.2942V68.4056ZM94.7164 68.4056V90.9928C94.7164 93.0491 93.0495 94.716 90.9932 94.716H68.4059H45.8187C43.7624 94.716 42.0955 93.0491 42.0955 90.9928V68.4056V45.8184C42.0955 43.7621 43.7624 42.0951 45.8187 42.0951H68.4059H90.9932C93.0495 42.0951 94.7164 43.7621 94.7164 45.8184V68.4056Z" fill="#292929"/>
<path d="M52.6191 68.4061V80.4691C52.6191 82.5254 54.2861 84.1924 56.3424 84.1924H68.4054H80.4685C82.5247 84.1924 84.1917 82.5254 84.1917 80.4691V68.4061V56.3431C84.1917 54.2868 82.5247 52.6198 80.4685 52.6198H68.4054H56.3424C54.2861 52.6198 52.6191 54.2868 52.6191 56.3431V68.4061Z" fill="#292929"/>
<path d="M115.765 52.6206V69.9457C115.765 72.002 117.432 73.6689 119.488 73.6689H126.289H133.09C135.146 73.6689 136.813 72.002 136.813 69.9457V68.4069V63.1448H142.075H143.614C145.67 63.1448 147.337 64.8117 147.337 66.868V68.4069V69.9457C147.337 72.002 149.004 73.6689 151.06 73.6689H152.599H154.138C156.194 73.6689 157.861 72.002 157.861 69.9457V63.1448V56.3438C157.861 54.2875 156.194 52.6206 154.138 52.6206H152.599H151.06C149.004 52.6206 147.337 50.9536 147.337 48.8973V42.0964V35.2954C147.337 33.2391 145.67 31.5722 143.614 31.5722H131.551H119.488C117.432 31.5722 115.765 33.2391 115.765 35.2954V52.6206ZM136.813 57.8827V63.1448H131.551H130.012C127.956 63.1448 126.289 61.4778 126.289 59.4215V57.8827V56.3438C126.289 54.2875 127.956 52.6206 130.012 52.6206H131.551H133.09C135.146 52.6206 136.813 54.2875 136.813 56.3438V57.8827Z" fill="#292929"/>
<path d="M157.86 36.8342V38.3731C157.86 40.4293 159.527 42.0963 161.584 42.0963H163.122H168.385V47.3584V48.8972C168.385 50.9535 170.051 52.6205 172.108 52.6205H173.647H175.185C177.242 52.6205 178.909 54.2874 178.909 56.3437V57.8826V59.4214C178.909 61.4777 177.242 63.1447 175.185 63.1447H173.647H172.108C170.051 63.1447 168.385 64.8116 168.385 66.8679V68.4068V69.9456C168.385 72.0019 170.051 73.6689 172.108 73.6689H173.647H175.185C177.242 73.6689 178.909 75.3358 178.909 77.3921V78.931V80.4698C178.909 82.5261 180.576 84.1931 182.632 84.1931H189.433H196.234C198.29 84.1931 199.957 85.86 199.957 87.9163V94.7172V101.518C199.957 103.574 198.29 105.241 196.234 105.241H194.695H193.156C191.1 105.241 189.433 103.574 189.433 101.518V99.9793V98.4405C189.433 96.3842 187.766 94.7172 185.71 94.7172H184.171H182.632C180.576 94.7172 178.909 96.3842 178.909 98.4405V105.241V112.042C178.909 114.099 180.576 115.766 182.632 115.766H194.695H206.758C208.814 115.766 210.481 114.099 210.481 112.042V94.7172V77.3921C210.481 75.3358 208.814 73.6689 206.758 73.6689H205.219H203.68C201.624 73.6689 199.957 72.0019 199.957 69.9456V63.1447V56.3437C199.957 54.2874 198.29 52.6205 196.234 52.6205H194.695H193.156C191.1 52.6205 189.433 50.9535 189.433 48.8972V47.3584V45.8196C189.433 43.7633 191.1 42.0963 193.156 42.0963H199.957H206.758C208.814 42.0963 210.481 40.4293 210.481 38.3731V36.8342V35.2954C210.481 33.2391 208.814 31.5721 206.758 31.5721H194.695H182.632C180.576 31.5721 178.909 33.2391 178.909 35.2954V36.8342V38.3731C178.909 40.4293 177.242 42.0963 175.185 42.0963H173.647H168.385V36.8342V35.2954C168.385 33.2391 166.718 31.5721 164.661 31.5721H163.122H161.584C159.527 31.5721 157.86 33.2391 157.86 35.2954V36.8342Z" fill="#292929"/>
<path d="M221.005 68.4056V101.517C221.005 103.573 222.672 105.24 224.728 105.24H257.84H290.951C293.007 105.24 294.674 103.573 294.674 101.517V68.4056V35.2942C294.674 33.2379 293.007 31.5709 290.951 31.5709H257.84H224.728C222.672 31.5709 221.005 33.2379 221.005 35.2942V68.4056ZM284.15 68.4056V90.9928C284.15 93.0491 282.483 94.716 280.427 94.716H257.84H235.252C233.196 94.716 231.529 93.0491 231.529 90.9928V68.4056V45.8184C231.529 43.7621 233.196 42.0951 235.252 42.0951H257.84H280.427C282.483 42.0951 284.15 43.7621 284.15 45.8184V68.4056Z" fill="#292929"/>
<path d="M242.054 68.4061V80.4691C242.054 82.5254 243.721 84.1924 245.777 84.1924H257.84H269.903C271.959 84.1924 273.626 82.5254 273.626 80.4691V68.4061V56.3431C273.626 54.2868 271.959 52.6198 269.903 52.6198H257.84H245.777C243.721 52.6198 242.054 54.2868 242.054 56.3431V68.4061Z" fill="#292929"/>
<path d="M115.765 94.7172V101.518C115.765 103.574 117.432 105.241 119.488 105.241H121.027H126.289V110.503V112.042C126.289 114.099 127.956 115.766 130.012 115.766H131.551H133.09C135.146 115.766 136.813 114.099 136.813 112.042V110.503V105.241H142.075H143.614C145.67 105.241 147.337 103.574 147.337 101.518V99.9793V94.7172H152.599H154.138C156.195 94.7172 157.862 96.3842 157.862 98.4405V105.241V115.766H152.599H151.061C149.004 115.766 147.337 117.433 147.337 119.489V121.028V126.29H126.289H105.241V121.028V119.489C105.241 117.433 103.574 115.766 101.517 115.766H89.4543H77.3913C75.335 115.766 73.668 117.433 73.668 119.489V126.29V136.814H68.4059H66.8671C64.8108 136.814 63.1439 135.147 63.1439 133.091V131.552V130.013C63.1439 127.957 61.4769 126.29 59.4206 126.29H57.8818H56.3429C54.2866 126.29 52.6197 124.623 52.6197 122.567V121.028V119.489C52.6197 117.433 50.9527 115.766 48.8964 115.766H42.0955H35.2945C33.2382 115.766 31.5713 117.433 31.5713 119.489V126.29V133.091C31.5713 135.147 33.2382 136.814 35.2945 136.814H36.8334H38.3722C40.4285 136.814 42.0955 138.481 42.0955 140.537V147.338V154.139C42.0955 156.195 43.7624 157.862 45.8187 157.862H47.3576H52.6197V163.124V168.387H42.0955H35.2945C33.2382 168.387 31.5713 170.053 31.5713 172.11V173.649V175.187C31.5713 177.244 33.2382 178.911 35.2945 178.911H42.0955H48.8964C50.9527 178.911 52.6197 177.244 52.6197 175.187V173.649V168.387H57.8818H63.1439V184.173V196.236C63.1439 198.292 61.4769 199.959 59.4206 199.959H47.3576H35.2945C33.2382 199.959 31.5713 201.626 31.5713 203.682V205.221V206.76C31.5713 208.816 33.2382 210.483 35.2945 210.483H57.8818H80.469C82.5253 210.483 84.1922 208.816 84.1922 206.76V205.221V203.682C84.1922 201.626 85.8592 199.959 87.9155 199.959H89.4543H94.7164V205.221V206.76C94.7164 208.816 96.3834 210.483 98.4397 210.483H105.241H115.765V215.745V217.284C115.765 219.34 117.432 221.007 119.488 221.007H121.027H122.566C124.622 221.007 126.289 219.34 126.289 217.284V215.745V210.483H142.075H154.138C156.195 210.483 157.862 212.15 157.862 214.207V215.745V217.284C157.862 219.34 156.195 221.007 154.138 221.007H147.337H140.536C138.48 221.007 136.813 222.674 136.813 224.731V226.27V227.808C136.813 229.865 138.48 231.532 140.536 231.532H147.337H154.138C156.195 231.532 157.862 233.199 157.862 235.255V236.794V238.333C157.862 240.389 156.195 242.056 154.138 242.056H152.599H151.061C149.004 242.056 147.337 243.723 147.337 245.779V252.58V259.381C147.337 261.437 145.67 263.104 143.614 263.104H142.075H140.536C138.48 263.104 136.813 261.437 136.813 259.381V257.842V256.303C136.813 254.247 135.146 252.58 133.09 252.58H131.551H126.289V242.056V235.255C126.289 233.199 124.622 231.532 122.566 231.532H121.027H119.488C117.432 231.532 115.765 233.199 115.765 235.255V242.056V248.857C115.765 250.913 117.432 252.58 119.488 252.58H121.027H126.289V263.104V269.905C126.289 271.961 124.622 273.628 122.566 273.628H121.027H119.488C117.432 273.628 115.765 275.295 115.765 277.352V284.153V290.954C115.765 293.01 117.432 294.677 119.488 294.677H121.027H122.566C124.622 294.677 126.289 293.01 126.289 290.954V289.415V287.876C126.289 285.82 127.956 284.153 130.012 284.153H131.551H136.813V289.415V290.954C136.813 293.01 138.48 294.677 140.536 294.677H142.075H143.614C145.67 294.677 147.337 293.01 147.337 290.954V289.415V284.153H152.599H154.138C156.195 284.153 157.862 282.486 157.862 280.429V273.628V266.827C157.862 264.771 159.528 263.104 161.585 263.104H168.386H175.187C177.243 263.104 178.91 261.437 178.91 259.381V257.842V256.303C178.91 254.247 177.243 252.58 175.187 252.58H173.648H172.109C170.053 252.58 168.386 250.913 168.386 248.857V236.794V224.731C168.386 222.674 170.053 221.007 172.109 221.007H178.91H185.711C187.767 221.007 189.434 219.34 189.434 217.284V215.745V210.483H194.696H196.235C198.291 210.483 199.958 212.15 199.958 214.207V231.532V248.857C199.958 250.913 201.625 252.58 203.682 252.58H205.22H206.759C208.816 252.58 210.482 254.247 210.482 256.303V257.842V263.104H205.22H203.682C201.625 263.104 199.958 264.771 199.958 266.827V268.366V273.628H194.696H193.157C191.101 273.628 189.434 275.295 189.434 277.352V284.153V290.954C189.434 293.01 191.101 294.677 193.157 294.677H194.696H196.235C198.291 294.677 199.958 293.01 199.958 290.954V284.153V273.628H205.22H206.759C208.816 273.628 210.482 271.961 210.482 269.905V268.366V263.104H215.745H217.283C219.34 263.104 221.007 264.771 221.007 266.827V268.366V269.905C221.007 271.961 222.674 273.628 224.73 273.628H226.269H231.531V278.89V284.153H221.007H214.206C212.149 284.153 210.482 285.82 210.482 287.876V289.415V290.954C210.482 293.01 212.149 294.677 214.206 294.677H221.007H227.808C229.864 294.677 231.531 293.01 231.531 290.954V289.415V284.153H247.317H259.38C261.436 284.153 263.103 285.82 263.103 287.876V289.415V290.954C263.103 293.01 264.77 294.677 266.827 294.677H278.89H290.953C293.009 294.677 294.676 293.01 294.676 290.954V289.415V287.876C294.676 285.82 293.009 284.153 290.953 284.153H289.414H287.875C285.819 284.153 284.152 282.486 284.152 280.429V273.628V266.827C284.152 264.771 285.819 263.104 287.875 263.104H289.414H290.953C293.009 263.104 294.676 261.437 294.676 259.381V257.842V256.303C294.676 254.247 293.009 252.58 290.953 252.58H284.152H277.351C275.295 252.58 273.628 250.913 273.628 248.857V242.056V235.255C273.628 233.199 271.961 231.532 269.904 231.532H263.103H256.302C254.246 231.532 252.579 229.865 252.579 227.808V221.007V214.207C252.579 212.15 254.246 210.483 256.302 210.483H263.103H269.904C271.961 210.483 273.628 208.816 273.628 206.76V205.221V203.682C273.628 201.626 275.295 199.959 277.351 199.959H278.89H280.429C282.485 199.959 284.152 198.292 284.152 196.236V194.697V193.158C284.152 191.102 282.485 189.435 280.429 189.435H278.89H277.351C275.295 189.435 273.628 187.768 273.628 185.712V184.173V178.911H278.89H280.429C282.485 178.911 284.152 177.244 284.152 175.187V173.649V172.11C284.152 170.053 285.819 168.387 287.875 168.387H289.414H290.953C293.009 168.387 294.676 166.72 294.676 164.663V163.124V161.586C294.676 159.529 293.009 157.862 290.953 157.862H289.414H287.875C285.819 157.862 284.152 156.195 284.152 154.139V152.6V151.061C284.152 149.005 282.485 147.338 280.429 147.338H278.89H277.351C275.295 147.338 273.628 145.671 273.628 143.615V142.076V136.814H278.89H280.429C282.485 136.814 284.152 135.147 284.152 133.091V131.552V130.013C284.152 127.957 285.819 126.29 287.875 126.29H289.414H290.953C293.009 126.29 294.676 124.623 294.676 122.567V121.028V119.489C294.676 117.433 293.009 115.766 290.953 115.766H273.628H256.302C254.246 115.766 252.579 117.433 252.579 119.489V121.028V122.567C252.579 124.623 250.912 126.29 248.856 126.29H247.317H242.055V121.028V119.489C242.055 117.433 240.388 115.766 238.332 115.766H236.793H235.254C233.198 115.766 231.531 117.433 231.531 119.489V121.028V122.567C231.531 124.623 233.198 126.29 235.254 126.29H236.793H242.055V131.552V133.091C242.055 135.147 240.388 136.814 238.332 136.814H231.531H224.73C222.674 136.814 221.007 138.481 221.007 140.537V142.076V147.338H210.482H199.958V142.076V140.537C199.958 138.481 201.625 136.814 203.682 136.814H205.22H206.759C208.816 136.814 210.482 135.147 210.482 133.091V131.552V130.013C210.482 127.957 208.816 126.29 206.759 126.29H194.696H182.633C180.577 126.29 178.91 127.957 178.91 130.013V131.552V133.091C178.91 135.147 177.243 136.814 175.187 136.814H173.648H172.109C170.053 136.814 168.386 135.147 168.386 133.091V131.552V130.013C168.386 127.957 166.719 126.29 164.662 126.29H163.124H157.862V121.028V115.766H163.124H164.662C166.719 115.766 168.386 114.099 168.386 112.042V99.9793V87.9163C168.386 85.86 166.719 84.193 164.662 84.193H157.862H151.061C149.004 84.193 147.337 85.86 147.337 87.9163V89.4551V94.7172H142.075H140.536C138.48 94.7172 136.813 96.3842 136.813 98.4405V99.9793V105.241H131.551H126.289V94.7172V87.9163C126.289 85.86 124.622 84.193 122.566 84.193H121.027H119.488C117.432 84.193 115.765 85.86 115.765 87.9163V94.7172ZM105.241 131.552V133.091C105.241 135.147 106.908 136.814 108.964 136.814H126.289H147.337V131.552V126.29H152.599H157.862V131.552V133.091C157.862 135.147 156.195 136.814 154.138 136.814H152.599H147.337V142.076V143.615C147.337 145.671 145.67 147.338 143.614 147.338H142.075H140.536C138.48 147.338 136.813 149.005 136.813 151.061V157.862V168.387H142.075H143.614C145.67 168.387 147.337 166.72 147.337 164.663V163.124V161.586C147.337 159.529 149.004 157.862 151.061 157.862H152.599H154.138C156.195 157.862 157.862 156.195 157.862 154.139V152.6V151.061C157.862 149.005 159.528 147.338 161.585 147.338H178.91H199.958V152.6V154.139C199.958 156.195 201.625 157.862 203.682 157.862H205.22H206.759C208.816 157.862 210.482 159.529 210.482 161.586V163.124V168.387H226.269H242.055V163.124V161.586C242.055 159.529 240.388 157.862 238.332 157.862H231.531H224.73C222.674 157.862 221.007 156.195 221.007 154.139V152.6V147.338H242.055H259.38C261.436 147.338 263.103 149.005 263.103 151.061V152.6V154.139C263.103 156.195 261.436 157.862 259.38 157.862H257.841H256.302C254.246 157.862 252.579 159.529 252.579 161.586V163.124V168.387H263.103H269.904C271.961 168.387 273.628 170.053 273.628 172.11V173.649V178.911H263.103H256.302C254.246 178.911 252.579 177.244 252.579 175.187V173.649V168.387H247.317H242.055V173.649V175.187C242.055 177.244 240.388 178.911 238.332 178.911H231.531H224.73C222.674 178.911 221.007 180.578 221.007 182.634V189.435V196.236C221.007 198.292 219.34 199.959 217.283 199.959H215.745H214.206C212.149 199.959 210.482 198.292 210.482 196.236V194.697V193.158C210.482 191.102 208.816 189.435 206.759 189.435H205.22H203.682C201.625 189.435 199.958 187.768 199.958 185.712V184.173V182.634C199.958 180.578 201.625 178.911 203.682 178.911H205.22H206.759C208.816 178.911 210.482 177.244 210.482 175.187V173.649V168.387H199.958H193.157C191.101 168.387 189.434 166.72 189.434 164.663V163.124V161.586C189.434 159.529 187.767 157.862 185.711 157.862H184.172H182.633C180.577 157.862 178.91 159.529 178.91 161.586V168.387V175.187C178.91 177.244 177.243 178.911 175.187 178.911H173.648H172.109C170.053 178.911 168.386 180.578 168.386 182.634V184.173V189.435H178.91H185.711C187.767 189.435 189.434 191.102 189.434 193.158V199.959V210.483H178.91H172.109C170.053 210.483 168.386 208.816 168.386 206.76V199.959V189.435H163.124H161.585C159.528 189.435 157.862 191.102 157.862 193.158V194.697V196.236C157.862 198.292 156.195 199.959 154.138 199.959H142.075H126.289V205.221V210.483H121.027H115.765V205.221V203.682C115.765 201.626 117.432 199.959 119.488 199.959H121.027H126.289V194.697V193.158C126.289 191.102 124.622 189.435 122.566 189.435H121.027H119.488C117.432 189.435 115.765 187.768 115.765 185.712V184.173V182.634C115.765 180.578 117.432 178.911 119.488 178.911H126.289H133.09C135.146 178.911 136.813 177.244 136.813 175.187V173.649V168.387H126.289H119.488C117.432 168.387 115.765 166.72 115.765 164.663V163.124V161.586C115.765 159.529 117.432 157.862 119.488 157.862H121.027H122.566C124.622 157.862 126.289 156.195 126.289 154.139V152.6V151.061C126.289 149.005 124.622 147.338 122.566 147.338H115.765H108.964C106.908 147.338 105.241 149.005 105.241 151.061V152.6V154.139C105.241 156.195 103.574 157.862 101.517 157.862H99.9785H98.4397C96.3834 157.862 94.7164 159.529 94.7164 161.586V163.124V168.387H99.9785H101.517C103.574 168.387 105.241 170.053 105.241 172.11V173.649V175.187C105.241 177.244 103.574 178.911 101.517 178.911H99.9785H98.4397C96.3834 178.911 94.7164 177.244 94.7164 175.187V173.649V168.387H89.4543H84.1922V173.649V175.187C84.1922 177.244 82.5253 178.911 80.469 178.911H78.9301H77.3913C75.335 178.911 73.668 177.244 73.668 175.187V173.649V168.387H68.4059H63.1439V163.124V157.862H57.8818H52.6197V152.6V151.061C52.6197 149.005 54.2866 147.338 56.3429 147.338H57.8818H59.4206C61.4769 147.338 63.1439 149.005 63.1439 151.061V152.6V157.862H68.4059H69.9448C72.0011 157.862 73.668 159.529 73.668 161.586V163.124V168.387H78.9301H84.1922V157.862V151.061C84.1922 149.005 82.5253 147.338 80.469 147.338H78.9301H77.3913C75.335 147.338 73.668 145.671 73.668 143.615V142.076V136.814H84.1922H90.9932C93.0495 136.814 94.7164 135.147 94.7164 133.091V131.552V130.013C94.7164 127.957 96.3834 126.29 98.4397 126.29H99.9785H105.241V131.552ZM273.628 131.552V136.814H268.365H266.827C264.77 136.814 263.103 135.147 263.103 133.091V131.552V130.013C263.103 127.957 264.77 126.29 266.827 126.29H268.365H269.904C271.961 126.29 273.628 127.957 273.628 130.013V131.552ZM105.241 194.697V196.236C105.241 198.292 103.574 199.959 101.517 199.959H99.9785H94.7164V194.697V193.158C94.7164 191.102 96.3834 189.435 98.4397 189.435H99.9785H101.517C103.574 189.435 105.241 191.102 105.241 193.158V194.697ZM263.103 194.697V196.236C263.103 198.292 261.436 199.959 259.38 199.959H257.841H256.302C254.246 199.959 252.579 198.292 252.579 196.236V194.697V193.158C252.579 191.102 254.246 189.435 256.302 189.435H257.841H259.38C261.436 189.435 263.103 191.102 263.103 193.158V194.697ZM242.055 226.27V238.333C242.055 240.389 240.388 242.056 238.332 242.056H226.269H214.206C212.149 242.056 210.482 240.389 210.482 238.333V226.27V214.207C210.482 212.15 212.149 210.483 214.206 210.483H226.269H238.332C240.388 210.483 242.055 212.15 242.055 214.207V226.27ZM263.103 257.842V263.104H268.365H269.904C271.961 263.104 273.628 264.771 273.628 266.827V268.366V269.905C273.628 271.961 271.961 273.628 269.904 273.628H268.365H266.827C264.77 273.628 263.103 271.961 263.103 269.905V268.366V263.104H257.841H256.302C254.246 263.104 252.579 264.771 252.579 266.827V268.366V269.905C252.579 271.961 250.912 273.628 248.856 273.628H242.055H231.531V268.366V266.827C231.531 264.771 233.198 263.104 235.254 263.104H236.793H238.332C240.388 263.104 242.055 261.437 242.055 259.381V257.842V256.303C242.055 254.247 243.722 252.58 245.778 252.58H252.579H259.38C261.436 252.58 263.103 254.247 263.103 256.303V257.842ZM147.337 278.89V284.153H142.075H136.813V278.89V277.352C136.813 275.295 138.48 273.628 140.536 273.628H142.075H143.614C145.67 273.628 147.337 275.295 147.337 277.352V278.89Z" fill="#292929"/>
<path d="M94.7158 142.075V143.614C94.7158 145.67 96.3828 147.337 98.4391 147.337H99.9779H101.517C103.573 147.337 105.24 145.67 105.24 143.614V142.075V140.536C105.24 138.48 103.573 136.813 101.517 136.813H99.9779H98.4391C96.3828 136.813 94.7158 138.48 94.7158 140.536V142.075Z" fill="#292929"/>
<path d="M157.86 163.124V164.662C157.86 166.719 159.527 168.386 161.584 168.386H163.122H164.661C166.718 168.386 168.385 166.719 168.385 164.662V163.124V161.585C168.385 159.529 166.718 157.862 164.661 157.862H163.122H161.584C159.527 157.862 157.86 159.529 157.86 161.585V163.124Z" fill="#292929"/>
<path d="M136.812 184.171V185.71C136.812 187.767 138.479 189.434 140.536 189.434H142.075H143.613C145.67 189.434 147.337 187.767 147.337 185.71V184.171V182.633C147.337 180.576 145.67 178.909 143.613 178.909H142.075H140.536C138.479 178.909 136.812 180.576 136.812 182.633V184.171Z" fill="#292929"/>
<path d="M221.005 226.271V227.81C221.005 229.866 222.672 231.533 224.728 231.533H226.267H227.806C229.862 231.533 231.529 229.866 231.529 227.81V226.271V224.732C231.529 222.676 229.862 221.009 227.806 221.009H226.267H224.728C222.672 221.009 221.005 222.676 221.005 224.732V226.271Z" fill="#292929"/>
<path d="M31.5713 257.842V290.953C31.5713 293.01 33.2382 294.677 35.2945 294.677H68.4059H101.517C103.574 294.677 105.241 293.01 105.241 290.954V257.842V224.731C105.241 222.674 103.574 221.007 101.517 221.007H68.4059H35.2945C33.2383 221.007 31.5713 222.674 31.5713 224.731V257.842ZM94.7164 257.842V280.429C94.7164 282.486 93.0495 284.153 90.9932 284.153H68.4059H45.8187C43.7624 284.153 42.0955 282.486 42.0955 280.429V257.842V235.255C42.0955 233.199 43.7624 231.532 45.8187 231.532H68.4059H90.9932C93.0495 231.532 94.7164 233.199 94.7164 235.255V257.842Z" fill="#292929"/>
<path d="M52.6191 257.843V269.906C52.6191 271.962 54.2861 273.629 56.3424 273.629H68.4054H80.4685C82.5247 273.629 84.1917 271.962 84.1917 269.906V257.843V245.78C84.1917 243.723 82.5247 242.056 80.4685 242.056H68.4054H56.3424C54.2861 242.056 52.6191 243.723 52.6191 245.78V257.843Z" fill="#292929"/>
<path d="M178.909 236.794V238.332C178.909 240.389 180.576 242.056 182.632 242.056H184.171H185.71C187.766 242.056 189.433 240.389 189.433 238.332V236.794V235.255C189.433 233.198 187.766 231.531 185.71 231.531H184.171H182.632C180.576 231.531 178.909 233.198 178.909 235.255V236.794Z" fill="#292929"/>
</g>
<defs>
<clipPath id="clip0_749_1806">
<rect width="326.25" height="326.25" fill="white"/>
</clipPath>
</defs>
</svg>
